HIERARCHY
ROOT root
{
	OFFSET 0.000000 0.000000 0.000000
	CHANNELS 6 Xposition Yposition Zposition Zrotation Yrotation Xrotation
	JOINT lhip
	{
		OFFSET 0.058581 -0.082280 -0.017664
		CHANNELS 3 Zrotation Yrotation Xrotation
		JOINT lknee
		{
			OFFSET 0.043451 -0.386469 0.008037
			CHANNELS 3 Zrotation Yrotation Xrotation
			JOINT lankle
			{
				OFFSET -0.014790 -0.426874 -0.037428
				CHANNELS 3 Zrotation Yrotation Xrotation
				JOINT ltoe
				{
					OFFSET 0.041054 -0.060286 0.122042
					CHANNELS 3 Zrotation Yrotation Xrotation
					End Site
					{
						OFFSET 0.000000 0.000000 0.000000
					}
				}
			}
		}
	}
	JOINT rhip
	{
		OFFSET -0.060310 -0.090513 -0.013543
		CHANNELS 3 Zrotation Yrotation Xrotation
		JOINT rknee
		{
			OFFSET -0.043257 -0.383688 -0.004843
			CHANNELS 3 Zrotation Yrotation Xrotation
			JOINT rankle
			{
				OFFSET 0.019056 -0.420046 -0.034562
				CHANNELS 3 Zrotation Yrotation Xrotation
				JOINT rtoe
				{
					OFFSET -0.034840 -0.062106 0.130323
					CHANNELS 3 Zrotation Yrotation Xrotation
					End Site
					{
						OFFSET 0.000000 0.000000 0.000000
					}
				}
			}
		}
	}
	JOINT lowerback
	{
		OFFSET 0.004439 0.124404 -0.038385
		CHANNELS 3 Zrotation Yrotation Xrotation
		JOINT upperback
		{
			OFFSET 0.004488 0.137956 0.026820
			CHANNELS 3 Zrotation Yrotation Xrotation
			JOINT chest
			{
				OFFSET -0.002265 0.056032 0.002855
				CHANNELS 3 Zrotation Yrotation Xrotation
				JOINT lowerneck
				{
					OFFSET -0.013390 0.211636 -0.033468
					CHANNELS 3 Zrotation Yrotation Xrotation
					JOINT upperneck
					{
						OFFSET 0.010113 0.088937 0.050410
						CHANNELS 3 Zrotation Yrotation Xrotation
						End Site
						{
							OFFSET 0.000000 0.000000 0.000000
						}
					}
				}
				JOINT lclavicle
				{
					OFFSET 0.071702 0.114000 -0.018898
					CHANNELS 3 Zrotation Yrotation Xrotation
					JOINT lshoulder
					{
						OFFSET 0.122921 0.045205 -0.019046
						CHANNELS 3 Zrotation Yrotation Xrotation
						JOINT lelbow
						{
							OFFSET 0.255332 -0.015649 -0.022946
							CHANNELS 3 Zrotation Yrotation Xrotation
							JOINT lwrist
							{
								OFFSET 0.265709 0.012698 -0.007375
								CHANNELS 3 Zrotation Yrotation Xrotation
								End Site
								{
									OFFSET 0.000000 0.000000 0.000000
								}
							}
						}
					}
				}
				JOINT rclavicle
				{
					OFFSET -0.082954 0.112472 -0.023707
					CHANNELS 3 Zrotation Yrotation Xrotation
					JOINT rshoulder
					{
						OFFSET -0.113228 0.046853 -0.008472
						CHANNELS 3 Zrotation Yrotation Xrotation
						JOINT relbow
						{
							OFFSET -0.260127 -0.014369 -0.031269
							CHANNELS 3 Zrotation Yrotation Xrotation
							JOINT rwrist
							{
								OFFSET -0.269108 0.006794 -0.006027
								CHANNELS 3 Zrotation Yrotation Xrotation
								End Site
								{
									OFFSET 0.000000 0.000000 0.000000
								}
							}
						}
					}
				}
			}
		}
	}
}
MOTION
Frames: 8
Frame Time: 0.033333
0.371899 0.743564 0.967673 -109.474517 2.313228 90.120822 3.843649 -8.278003 -15.545885 -4.234696 7.510082 25.424108 9.729750 16.788185 -17.133849 0.000000 -0.000000 0.000000 -13.025827 4.822234 8.393024 -2.352142 10.370308 92.079934 6.699096 -13.623067 32.449823 0.000000 -0.000000 0.000000 -5.927939 12.280835 6.563888 3.481403 4.736838 7.702958 0.307937 6.820288 -2.656465 2.001832 -8.354346 12.682383 2.261813 -3.151870 10.235834 -20.501848 3.093633 6.038102 -50.645893 10.892476 1.251278 3.664945 -38.168035 12.764731 -8.505358 -13.129323 4.007774 22.560744 9.911511 3.720201 50.344939 7.728551 9.530791 -19.472744 41.690640 -9.359937 7.681658 3.432034 4.007010 
0.353724 0.737891 0.968652 -107.697190 2.045615 89.957945 2.165510 -9.015653 -14.153181 -4.518715 7.062070 24.881789 11.384454 17.798875 -17.285581 0.000000 -0.000000 0.000000 -11.593018 6.396700 7.170126 -0.689547 10.448022 99.110965 4.998225 -15.811383 32.995547 0.000000 -0.000000 0.000000 -5.738663 11.570699 6.209184 4.656237 4.897214 7.765852 0.610511 6.041608 -1.786470 1.516955 -9.826320 13.853988 1.856657 -2.703986 10.356129 -20.371532 3.746809 6.861311 -48.784765 10.614751 1.587249 1.858051 -40.670764 13.118902 -8.620106 -12.970442 3.815288 22.175507 8.001250 3.134345 49.897973 5.094472 9.294982 -20.595683 40.170953 -12.339434 9.590397 3.143861 3.677830 
0.337417 0.731746 0.969805 -104.794256 1.387678 89.511486 0.294229 -9.590768 -12.876325 -5.559558 7.250908 24.180139 12.505497 18.530607 -16.773648 0.000000 -0.000000 0.000000 -10.321662 7.670950 4.896985 0.446795 9.663378 104.553138 3.849925 -17.622384 33.525365 0.000000 -0.000000 0.000000 -5.661246 10.166105 6.679036 5.703460 4.082795 7.688702 0.895915 5.122354 -1.089060 1.127101 -10.579282 14.352586 1.405213 -2.625867 10.334444 -20.128479 4.467393 7.026585 -46.248694 10.076371 2.070693 -0.130052 -43.504891 12.800135 -9.208373 -12.882256 3.493551 22.190573 5.679707 2.373868 49.755777 1.822500 9.019347 -22.381537 37.825912 -17.551641 8.718959 2.586048 3.158525 
0.321793 0.725012 0.970395 -101.022929 0.844973 88.723283 -2.467945 -9.293618 -10.518347 -5.762288 5.687476 22.682008 13.958058 18.993941 -17.039082 0.000000 -0.000000 0.000000 -8.753218 8.354803 1.520432 0.839608 8.575785 107.465668 3.978923 -18.613942 32.717924 0.000000 -0.000000 0.000000 -5.066722 7.728225 7.758286 6.506241 2.683106 7.133059 1.094509 4.011907 -0.181618 0.824541 -10.392978 15.063752 0.660535 -2.679941 9.940337 -19.813089 5.362099 6.766229 -43.600462 8.780683 2.554621 -1.595864 -45.811776 12.877542 -8.852861 -13.143627 3.635740 22.787875 2.823264 1.824545 49.274360 -1.106529 8.450636 -23.593771 34.357556 -21.805126 4.809283 2.154264 4.097193 
0.307409 0.718758 0.969909 -97.523339 0.475375 87.643280 -4.395100 -9.694923 -7.796921 -6.131654 3.397304 21.655031 14.775758 19.472391 -17.672870 0.000000 -0.000000 0.000000 -7.743120 9.324543 -4.270333 1.135508 6.747624 107.259243 5.481517 -19.330427 31.904847 0.000000 -0.000000 0.000000 -4.552722 5.040703 9.041382 7.407465 1.388162 6.213952 1.282055 2.551707 1.047623 0.758469 -9.614578 15.470272 -0.425163 -2.907082 10.075426 -19.304599 6.073335 6.617470 -41.773679 6.228600 2.996131 -1.061476 -47.073762 11.441637 -7.800977 -13.470312 3.492546 23.429739 -0.351393 1.073922 48.672604 -3.620927 8.128777 -24.428083 29.957630 -24.031510 3.325235 2.188967 5.838095 
0.294628 0.714884 0.969558 -95.006209 0.274772 85.494574 -5.334674 -9.812039 -4.008382 -7.103051 -0.263391 20.965044 14.072144 19.771940 -18.690878 0.000000 -0.000000 0.000000 -7.536767 10.806635 -11.129011 0.633158 4.167939 102.825848 5.145668 -18.814984 27.369998 0.000000 -0.000000 0.000000 -4.221627 2.371768 11.334241 7.990007 0.393743 6.128441 1.492005 1.191545 2.025243 1.012030 -7.816628 15.916538 -1.120391 -3.561377 9.422962 -18.966191 6.011089 6.013240 -40.075853 3.160846 3.463829 0.613592 -47.681693 7.711985 -5.963432 -13.612731 1.884839 24.015626 -2.758402 0.611515 48.684955 -6.090501 7.627622 -24.739887 25.970081 -25.852577 0.940798 1.628964 6.107823 
0.283451 0.712342 0.969594 -93.926328 0.467018 82.496334 -6.206744 -8.616830 0.817181 -7.091086 -3.966042 20.041900 12.590661 19.800715 -20.119092 0.000000 -0.000000 0.000000 -8.269268 11.442757 -18.737541 -1.808002 1.567264 93.377153 6.264074 -18.974117 18.205737 0.000000 -0.000000 0.000000 -3.340809 -0.225264 14.403943 7.794898 -0.138631 6.560570 1.656026 -0.287427 2.878983 0.838100 -5.717338 16.358037 -2.305696 -3.317539 9.394239 -18.953027 5.347803 5.519684 -38.552953 -0.328550 3.260939 3.319615 -47.886864 3.579076 -5.731743 -13.911711 1.250216 24.263799 -3.952543 0.570953 49.780016 -8.476394 7.361004 -25.419209 22.798901 -27.263748 0.808248 1.001657 6.643365 
0.274679 0.710834 0.971042 -93.958111 1.548007 79.857413 -5.942860 -6.480139 4.627005 -6.304555 -6.234132 19.802774 11.104141 19.439286 -21.341212 0.000000 -0.000000 0.000000 -8.191702 10.406078 -25.747069 -5.156454 -2.442229 77.743867 7.002812 -18.493487 13.164174 0.000000 -0.000000 0.000000 -1.804431 -2.661182 17.659887 7.291625 -0.479220 6.337858 1.945078 -1.384044 4.021004 0.389205 -3.215739 16.503629 -2.660590 -2.673107 9.563474 -18.934761 4.441714 4.457609 -37.930098 -4.158759 2.958963 5.947997 -47.634475 1.143724 -5.801076 -14.572139 2.568385 24.276212 -5.555707 0.975082 50.581044 -10.215594 6.717803 -24.441076 21.490190 -25.677539 1.170250 1.074274 5.893100 
